<svg xmlns="http://www.w3.org/2000/svg" viewBox="0 0 640 480" width="640" height="480">
  <rect width="640" height="480" fill="#141a17"/>
  <g fill="#42f59e">
    <rect x="60" y="220" width="8" height="40"/>
    <rect x="76" y="190" width="8" height="100"/>
    <rect x="92" y="160" width="8" height="160"/>
    <rect x="108" y="200" width="8" height="80"/>
    <rect x="124" y="140" width="8" height="200"/>
    <rect x="140" y="180" width="8" height="120"/>
    <rect x="156" y="210" width="8" height="60"/>
    <rect x="172" y="150" width="8" height="180"/>
    <rect x="188" y="195" width="8" height="90"/>
    <rect x="204" y="170" width="8" height="140"/>
    <rect x="220" y="225" width="8" height="30"/>
    <rect x="236" y="185" width="8" height="110"/>
    <rect x="252" y="155" width="8" height="170"/>
    <rect x="268" y="200" width="8" height="80"/>
    <rect x="284" y="165" width="8" height="150"/>
    <rect x="300" y="215" width="8" height="50"/>
    <rect x="316" y="145" width="8" height="190"/>
    <rect x="332" y="190" width="8" height="100"/>
    <rect x="348" y="205" width="8" height="70"/>
    <rect x="364" y="160" width="8" height="160"/>
    <rect x="380" y="230" width="8" height="20"/>
    <rect x="396" y="180" width="8" height="120"/>
    <rect x="412" y="150" width="8" height="180"/>
    <rect x="428" y="200" width="8" height="80"/>
    <rect x="444" y="220" width="8" height="40"/>
    <rect x="460" y="170" width="8" height="140"/>
    <rect x="476" y="195" width="8" height="90"/>
  </g>
  <text x="60" y="380" fill="#ffffff" font-family="Arial, sans-serif" font-size="28" font-weight="bold">Zvuková vlna</text>
  <text x="60" y="415" fill="#9fd8bd" font-family="Arial, sans-serif" font-size="18">Váš zvuk jako 3D plaketa</text>
</svg>
